<svg xmlns="http://www.w3.org/2000/svg" width="43" height="49" fill="none" viewBox="0 0 43 49"><path fill="#A65E34" d="m1.47 37.06 19.85 11.47c.29.16.64.16.93 0l19.86-11.47a.93.93 0 0 0 .46-.8V13.33a.93.93 0 0 0-.46-.8L22.25 1.05a.93.93 0 0 0-.93 0L1.47 12.52a.93.93 0 0 0-.47.8v22.94c0 .33.18.64.47.8ZM40.7 14.94v20.78l-18 10.39V25.33l18-10.39ZM3.8 13.33l18-10.39 8.01 4.63-18 10.38-8-4.62Zm35.99 0-18 10.39-8.11-4.69 18-10.39 8.1 4.69ZM2.86 14.94l7.97 4.6V40.3l-7.97-4.6V14.95Zm9.83 5.67 8.17 4.72V46.1l-8.17-4.72V20.6Z"/><path stroke="#A65E34" stroke-width=".43" d="m1.47 37.06.1-.18m-.1.18 19.85 11.47c.29.16.64.16.93 0l19.86-11.47m-40.64 0a.93.93 0 0 1-.47-.8V13.33c0-.33.18-.64.47-.8L21.32 1.05a.93.93 0 0 1 .93 0l19.86 11.46c.29.17.46.48.46.8v22.94c0 .33-.17.64-.46.8m0 0-.11-.18m-1.29-21.94v20.78l-18 10.39V25.33l18-10.39ZM3.8 13.33l18-10.39 8.01 4.63-18 10.38-8-4.62Zm35.99 0-18 10.39-8.11-4.69 18-10.39 8.1 4.69ZM2.86 14.94l7.97 4.6V40.3l-7.97-4.6V14.95Zm9.83 5.67 8.17 4.72V46.1l-8.17-4.72V20.6Z"/></svg>