<svg xmlns="http://www.w3.org/2000/svg" width="32" height="46" fill="none" viewBox="0 0 32 46"><path fill="#A65E34" d="M26.92 27.16a15.96 15.96 0 0 0 1.84-18.94 15.59 15.59 0 0 0-7.58-6.45 15.3 15.3 0 0 0-9.87-.49 15.52 15.52 0 0 0-8.16 5.66 15.93 15.93 0 0 0 1.01 20.22L.05 40.74c-.13.43 0 .9.3 1.2.32.32.78.44 1.2.3l4.78-1.44 3.19 3.89c.22.29.56.46.92.45h.22c.43-.1.78-.41.91-.84l3.65-12.1h.83l3.65 12.1c.13.43.48.75.9.84h.23c.36 0 .7-.16.93-.45l3.18-3.89 4.79 1.44c.42.14.88.02 1.19-.3.31-.3.43-.77.3-1.2l-4.3-13.58ZM9.85 41.46l-2.28-2.78a1.2 1.2 0 0 0-1.26-.39l-3.36 1.02 3.1-10.34a15.39 15.39 0 0 0 6.6 3l-2.8 9.48Zm-7.46-25c0-3.54 1.39-6.94 3.85-9.44a13.05 13.05 0 0 1 18.6 0 13.46 13.46 0 0 1 0 18.88 13.05 13.05 0 0 1-9.3 3.91c-3.49 0-6.83-1.41-9.3-3.91a13.48 13.48 0 0 1-3.85-9.44ZM24.7 38.29a1.2 1.2 0 0 0-1.25.4l-2.24 2.76-2.85-9.48a15.4 15.4 0 0 0 6.6-3l3.1 10.34-3.36-1.02Z"/><path fill="#A65E34" d="m21.4 13.22-2.8-.4-1.24-2.56a2.04 2.04 0 0 0-1.08-1.01 2 2 0 0 0-1.47 0c-.48.19-.86.55-1.09 1.01l-1.24 2.56-2.79.4a2.08 2.08 0 0 0-1.12 3.5l2.03 2-.48 2.82c-.09.5.02 1.03.29 1.46a1.98 1.98 0 0 0 2.65.7l2.48-1.4 2.49 1.33a1.98 1.98 0 0 0 2.13-.15 2.05 2.05 0 0 0 .8-2l-.48-2.82 2.03-2a2.07 2.07 0 0 0-1.12-3.5v.06Zm-3.04 4.21c-.27.28-.4.68-.33 1.07l.44 2.7-2.37-1.28c-.35-.19-.77-.19-1.12 0l-2.37 1.28.44-2.7c.07-.4-.06-.79-.33-1.07l-1.96-1.97 2.66-.4c.39-.06.72-.3.9-.66l1.22-2.46 1.2 2.46c.17.36.5.6.89.67l2.66.39-1.93 1.97Z"/></svg>