<svg xmlns="http://www.w3.org/2000/svg" width="39" height="39" fill="none" viewBox="0 0 39 39"><path fill="#A65E34" d="M25.49 24.46a1.6 1.6 0 0 1-.71-.17L18.4 21.1a1.6 1.6 0 0 1-.88-1.42V8.53a1.6 1.6 0 0 1 3.19 0v10.16l5.49 2.75a1.6 1.6 0 0 1-.71 3.02Zm-6.37 14.33A19.14 19.14 0 0 1 0 19.68 19.14 19.14 0 0 1 19.12.56a19.14 19.14 0 0 1 19.11 19.12 19.14 19.14 0 0 1-19.11 19.11Zm0-35.04A15.95 15.95 0 0 0 3.19 19.68c0 8.78 7.14 15.93 15.93 15.93 8.78 0 15.93-7.15 15.93-15.93 0-8.79-7.15-15.93-15.93-15.93Z"/></svg>