<svg xmlns="http://www.w3.org/2000/svg" width="47" height="38" fill="none" viewBox="0 0 47 38"><path fill="#A65E34" d="M23.34.24c4.75 0 8.6 3.78 8.6 8.44 0 2.86-1.46 5.4-3.7 6.92a13.49 13.49 0 0 1 1.2.52l.07.04.1.04.11.07.07.03c.46.25.91.52 1.34.82l.04.03.1.07a5.9 5.9 0 0 1-.56-2.52 6.08 6.08 0 0 1 6.14-6.02c3.4 0 6.14 2.7 6.14 6.02 0 1.78-.79 3.38-2.04 4.49a9.63 9.63 0 0 1 5.73 8.76v4.32c0 .5-.3.93-.77 1.12a24.47 24.47 0 0 1-10.36 1.75l.36.02-.29.1c-.3.12-.61.24-.92.34l-.12.04-.36.13-.09.03-.36.11-.18.06-.3.1a14.98 14.98 0 0 1-.45.13l-.15.04-.36.1-.04.02-.41.1-.12.04-.3.07-.24.06a23.9 23.9 0 0 1-.41.1l-.3.07a20.1 20.1 0 0 1-.97.2l-.12.02-.33.06-.16.03-.27.04-.24.04a20.22 20.22 0 0 1-.49.07l-.13.02a33.69 33.69 0 0 1-.76.1l-.24.02-.22.02-.25.03-.2.02-.21.01-.3.03h-.06a38.65 38.65 0 0 1-2.22.08c-4.25 0-8.5-.84-12.74-2.5l.17.07h-.3l-.21.01h-.43c-3.03 0-6.05-.6-9.06-1.78A1.2 1.2 0 0 1 0 32.27v-4.32a9.63 9.63 0 0 1 5.73-8.76 5.95 5.95 0 0 1-2.04-4.5 6.08 6.08 0 0 1 6.14-6.01c3.39 0 6.14 2.7 6.14 6.02 0 .9-.2 1.75-.56 2.52.38-.27.78-.53 1.2-.76l.15-.09.04-.02a15 15 0 0 1 .21-.11l.1-.05c.43-.22.87-.42 1.32-.59a8.38 8.38 0 0 1-3.69-6.92 8.52 8.52 0 0 1 8.6-8.44Zm0 16.87h-.24l-.46.02h-.06.06l-.2.01h.14l-.23.01h.1a11.25 11.25 0 0 0-.8.08h.01l-.23.04.22-.04-.23.04h.01c-.39.07-.77.15-1.15.26h-.01.01l-.65.2-.1.04.1-.04-.19.07.1-.03-.2.07.1-.04-.18.07.08-.03a11.14 11.14 0 0 0-.93.4l.03-.01c-.28.14-.56.28-.82.44l-.04.02.04-.02c-.87.52-1.66 1.15-2.35 1.87a7.93 7.93 0 0 0-.2.22l.07-.08a8.78 8.78 0 0 0-.26.29l.1-.1a10.68 10.68 0 0 0-2.7 7.08v5.2l.13.04a36.55 36.55 0 0 0 4.95 1.4 31.86 31.86 0 0 0 5.54.58h-.03H23.78c.25 0 .5 0 .75-.02h.15-.15l.37-.01h-.22c.14 0 .29 0 .44-.02l-.22.02.48-.03-.26.01.44-.02h-.18l.43-.02-.25.02.46-.04-.21.02.4-.04-.2.02.45-.05-.25.03.56-.06-.3.03c.13 0 .26-.02.4-.04l-.1.01.36-.04-.26.03.52-.07-.26.04.41-.06-.15.02.42-.05-.27.03.5-.07-.23.04.41-.07-.19.03.5-.08-.3.05.4-.07-.1.02.42-.08-.31.06.52-.1-.2.04.36-.07-.16.03.5-.1-.34.07.46-.1-.12.03.4-.08-.28.06.49-.11-.22.05.43-.1-.21.05.43-.1-.22.05.43-.1-.2.05.5-.13-.3.08.37-.1-.08.02.4-.1-.32.08.59-.16-.27.07.45-.12-.18.05.41-.12-.23.07.45-.14-.22.07.43-.13-.2.06.44-.14-.24.08.55-.18-.31.1.44-.14-.13.04 1.03-.35.1-.04v-5.2a10.67 10.67 0 0 0-2.55-6.93l.1.12-.13-.16.03.04a10.35 10.35 0 0 0-.35-.4l.05.06-.13-.14.08.09-.38-.4-.04-.03.04.04a9.06 9.06 0 0 0-.14-.13l.1.09-.15-.14.05.05a11.1 11.1 0 0 0-2.94-1.98l.1.05a13.24 13.24 0 0 0-.4-.18l.16.07a8.65 8.65 0 0 0-.18-.08l.03.01-.19-.08.16.07-.25-.1.1.03-.23-.08.13.05-.18-.07.05.02c-.22-.09-.44-.16-.67-.23l-.07-.03.07.03-.24-.08.17.05a8.06 8.06 0 0 0-.2-.05h.03c-.3-.08-.6-.15-.91-.21l-.05-.01h.05a10.59 10.59 0 0 0-.5-.08h.03a10.54 10.54 0 0 0-.53-.06h.04l-.23-.02.2.02-.3-.03.1.01-.2-.02.1.01-.2-.01h.1-.25.14l-.22-.01h.08l-.53-.01Zm13.51 3.61c-.69 0-1.36.1-2 .27a13 13 0 0 1 2 6.96v4.82c2.45 0 4.9-.44 7.36-1.32h.01v-3.5a7.3 7.3 0 0 0-7.18-7.23h-.19Zm-27.02 0a7.3 7.3 0 0 0-7.37 7.23v3.5l.42.14c2.2.74 4.38 1.13 6.56 1.17h.39v-4.81a13 13 0 0 1 2-6.96 7.5 7.5 0 0 0-2-.27Zm27.02-9.63a3.65 3.65 0 0 0-3.68 3.6c0 2 1.65 3.62 3.68 3.62a3.65 3.65 0 0 0 3.69-3.61c0-2-1.65-3.61-3.69-3.61Zm-27.02 0a3.65 3.65 0 0 0-3.69 3.6c0 2 1.65 3.62 3.69 3.62a3.65 3.65 0 0 0 3.68-3.61c0-2-1.65-3.61-3.68-3.61Zm13.5-8.44c-3.38 0-6.13 2.7-6.13 6.03a6.08 6.08 0 0 0 6.14 6.02c3.4 0 6.14-2.7 6.14-6.02a6.08 6.08 0 0 0-6.14-6.03Z"/></svg>