<svg xmlns="http://www.w3.org/2000/svg" width="17" height="16" fill="none" viewBox="0 0 17 16"><path fill="#F0F1F6" d="M1.37.16C.7.22.13.77.12 1.44c.15 4.5 1.58 8.13 4.17 10.62 2.6 2.49 6.32 3.79 10.94 3.78a1.3 1.3 0 0 0 1.3-1.28c0-1.07 0-2.14.02-3.2 0-.74-.68-1.23-1.3-1.23-.96 0-2.29-.34-3.37-.61a.57.57 0 0 0-.53.14L9.58 11.4a11.43 11.43 0 0 1-4.45-4.31L6.9 5.37c.14-.14.2-.36.15-.55-.3-1.09-.77-2.5-.7-3.5C6.29.54 5.56.16 4.96.16H1.38Zm.01 1.12h3.6c.18 0 .18 0 .27.17-.04 1.2.36 2.41.63 3.35L4.02 6.6a.58.58 0 0 0-.08.7 13.2 13.2 0 0 0 5.43 5.29c.21.12.5.08.67-.09l1.88-1.82c1.01.25 2.23.57 3.34.57.08.01.16.13.17.14l-.03 3.16c-.04.1.03.17-.2.17-4.4 0-7.79-1.23-10.13-3.47C2.72 9 1.38 5.69 1.24 1.4c0-.12 0-.12.14-.12Z"/></svg>